name GIL08_free1.mot
datacolumns 153
datarows 4
range 0.93333334 0.95833331
endheader

                time	           pelvis_tx	           pelvis_ty	           pelvis_tz	         pelvis_tilt	         pelvis_list	     pelvis_rotation	       hip_flexion_r	     hip_adduction_r	      hip_rotation_r	        knee_angle_r	       ankle_angle_r	    subtalar_angle_r	         mtp_angle_r	       hip_flexion_l	     hip_adduction_l	      hip_rotation_l	        knee_angle_l	       ankle_angle_l	    subtalar_angle_l	         mtp_angle_l	    lumbar_extension	      lumbar_bending	     lumbar_rotation	     ground_force_vx	     ground_force_vy	     ground_force_vz	     ground_force_px	     ground_force_py	     ground_force_pz	     ground_force_vx	     ground_force_vy	     ground_force_vz	     ground_force_px	     ground_force_py	     ground_force_pz	     ground_torque_x	     ground_torque_y	     ground_torque_z	     ground_torque_x	     ground_torque_y	     ground_torque_z	    ground_marker_px	    ground_marker_py	    ground_marker_pz	    ground_marker_px	    ground_marker_py	    ground_marker_pz	    ground_marker_px	    ground_marker_py	    ground_marker_pz	    ground_marker_px	    ground_marker_py	    ground_marker_pz	    ground_marker_px	    ground_marker_py	    ground_marker_pz	    ground_marker_px	    ground_marker_py	    ground_marker_pz	    ground_marker_px	    ground_marker_py	    ground_marker_pz	    ground_marker_px	    ground_marker_py	    ground_marker_pz	    ground_marker_px	    ground_marker_py	    ground_marker_pz	    ground_marker_px	    ground_marker_py	    ground_marker_pz	    ground_marker_px	    ground_marker_py	    ground_marker_pz	    ground_marker_px	    ground_marker_py	    ground_marker_pz	    ground_marker_px	    ground_marker_py	    ground_marker_pz	    ground_marker_px	    ground_marker_py	    ground_marker_pz	    ground_marker_px	    ground_marker_py	    ground_marker_pz	    ground_marker_px	    ground_marker_py	    ground_marker_pz	    ground_marker_px	    ground_marker_py	    ground_marker_pz	    ground_marker_px	    ground_marker_py	    ground_marker_pz	    ground_marker_px	    ground_marker_py	    ground_marker_pz	    ground_marker_px	    ground_marker_py	    ground_marker_pz	    ground_marker_px	    ground_marker_py	    ground_marker_pz	    ground_marker_px	    ground_marker_py	    ground_marker_pz	    ground_marker_px	    ground_marker_py	    ground_marker_pz	    ground_marker_px	    ground_marker_py	    ground_marker_pz	    ground_marker_px	    ground_marker_py	    ground_marker_pz	    ground_marker_px	    ground_marker_py	    ground_marker_pz	    ground_marker_px	    ground_marker_py	    ground_marker_pz	    ground_marker_px	    ground_marker_py	    ground_marker_pz	    ground_marker_px	    ground_marker_py	    ground_marker_pz	    ground_marker_px	    ground_marker_py	    ground_marker_pz	    ground_marker_px	    ground_marker_py	    ground_marker_pz	    ground_marker_px	    ground_marker_py	    ground_marker_pz	    ground_marker_px	    ground_marker_py	    ground_marker_pz	    ground_marker_px	    ground_marker_py	    ground_marker_pz	    ground_marker_px	    ground_marker_py	    ground_marker_pz	    ground_marker_px	    ground_marker_py	    ground_marker_pz	    ground_marker_px	    ground_marker_py	    ground_marker_pz	
          0.93333334	          2.25996327	          0.99090803	         -0.24277049	          5.31577349	         -0.29849085	          7.30580568	         -3.54507732	          0.44720191	          6.12596178	        -12.32401657	          9.42429352	          0.00000000	          0.00000000	         12.29355621	         -2.71100163	          0.23177494	        -43.36553955	          9.76820183	          0.00000000	          0.00000000	        -20.19825745	          4.02412462	          2.60744429	         -6.26605155	        509.39073874	        -14.84120786	          2.18318066	          0.00000000	         -0.19400787	          0.00000000	          0.00000000	          0.00000000	          1.68146680	          0.00000000	         -0.25520233	          0.00000000	          1.02708826	          0.00000000	          0.00000000	          0.00000000	          0.00000000	          2.18226767	          0.90283513	         -0.23602784	          2.18996930	          0.89238554	         -0.18105391	          2.17644525	          0.89341599	         -0.28675726	          2.20168829	          0.48450497	         -0.18974127	          2.30018139	          0.49137712	         -0.32665685	          2.12356257	          0.07019026	         -0.18807192	          2.12191248	          0.11626054	         -0.29900384	          2.25996327	          0.99090803	         -0.24277049	          2.27306318	          0.98990989	         -0.14038102	          2.24686337	          0.99190623	         -0.34515995	          2.06478596	          1.01474512	         -0.18559636	          2.05353165	          1.01429355	         -0.27013612	          2.21550465	          0.48366943	         -0.13187367	          2.29202485	          0.49470666	         -0.38550103	          2.18298221	          0.50034624	         -0.24264263	          2.30852890	          0.48635089	         -0.27669382	          2.12635136	          0.06981706	         -0.15017623	          2.10902858	          0.11964223	         -0.33619004	          2.12104845	          0.07799176	         -0.21986683	          2.13570070	          0.12690334	         -0.27209368	          2.10842347	          1.46876490	         -0.20598258	          2.22123432	          1.39500952	         -0.14158577	          2.19741130	          1.40887463	         -0.29514307	          2.19649744	          1.40296006	         -0.22030810	          2.24038267	          1.20523214	         -0.25182265	          2.25235534	          0.59023058	         -0.04953759	          2.40942287	          0.65296757	         -0.35851181	          2.26198959	          0.65246058	         -0.11974157	          2.31577373	          0.68774283	         -0.38212991	          2.25760460	          0.57134682	         -0.14488544	          2.33149648	          0.60131025	         -0.37883011	          2.16509390	          0.14035174	         -0.08628196	          2.25620747	          0.17803404	         -0.32767600	          2.14709592	          0.20243910	         -0.14145420	          2.21872735	          0.25160778	         -0.32459503	          2.24455333	          0.04238066	         -0.21602044	          2.22641635	          0.06253848	         -0.32474902	
          0.94166666	          2.26819801	          0.99066842	         -0.24244249	          5.36232758	         -0.17333660	          7.05602980	         -4.27585745	          0.38331428	          6.11284637	        -12.07651424	          9.78338909	          0.00000000	          0.00000000	         12.92266464	         -2.53857684	          0.34498712	        -42.16500092	         10.22630787	          0.00000000	          0.00000000	        -20.41500664	          3.78139210	          2.91838336	         -4.34334400	        512.75840670	        -15.12052820	          2.18574072	          0.00000000	         -0.19457913	          0.00000000	          0.00000000	          0.00000000	          1.68225684	          0.00000000	         -0.25519791	          0.00000000	          1.15283057	          0.00000000	          0.00000000	          0.00000000	          0.00000000	          2.19056940	          0.90250719	         -0.23593661	          2.19800448	          0.89198542	         -0.18121125	          2.18496418	          0.89318079	         -0.28697360	          2.20499420	          0.48399070	         -0.18943574	          2.31389213	          0.49228436	         -0.32627755	          2.12374902	          0.07020454	         -0.18812914	          2.14810824	          0.11148452	         -0.29911390	          2.26819801	          0.99066842	         -0.24244249	          2.28083253	          0.98951024	         -0.13997197	          2.25556374	          0.99182659	         -0.34491301	          2.07275057	          1.01430988	         -0.18606259	          2.06190705	          1.01386321	         -0.27063918	          2.21852756	          0.48305473	         -0.13150285	          2.30613804	          0.49556535	         -0.38517883	          2.18680453	          0.49987867	         -0.24225888	          2.32154703	          0.48755902	         -0.27624846	          2.12652183	          0.06977981	         -0.15023281	          2.13533783	          0.11438581	         -0.33637989	          2.12098670	          0.07801589	         -0.21991177	          2.16101623	          0.12258775	         -0.27200672	          2.11717200	          1.46850085	         -0.20647591	          2.22999191	          1.39455831	         -0.14210694	          2.20592022	          1.40825355	         -0.29569826	          2.20512962	          1.40244913	         -0.22082523	          2.24852848	          1.20457959	         -0.25212407	          2.25621963	          0.58963954	         -0.04911369	          2.42104936	          0.65554470	         -0.35707644	          2.26652932	          0.65161932	         -0.11935712	          2.32722664	          0.68910927	         -0.38145587	          2.26163006	          0.57049465	         -0.14438012	          2.34397364	          0.60289514	         -0.37809250	          2.16578388	          0.14000623	         -0.08624247	          2.28036261	          0.17789349	         -0.32706961	          2.14818811	          0.20225334	         -0.14128269	          2.24042344	          0.25010866	         -0.32430807	          2.24459672	          0.04230744	         -0.21604225	          2.25484705	          0.06213168	         -0.32439449	
          0.94999999	          2.27642798	          0.99034226	         -0.24217513	          5.41217661	         -0.05246737	          6.81471634	         -5.00625849	          0.31884822	          6.13908815	        -11.83766747	         10.15726566	          0.00000000	          0.00000000	         13.52187157	         -2.36523724	          0.43820912	        -40.89261627	         10.61844444	          0.00000000	          0.00000000	        -20.64740181	          3.54740000	          3.20851445	         -2.53623836	        517.04209843	        -15.19628585	          2.18842334	          0.00000000	         -0.19525235	          0.00000000	          0.00000000	          0.00000000	          1.68310547	          0.00000000	         -0.25518814	          0.00000000	          1.27671680	          0.00000000	          0.00000000	          0.00000000	          0.00000000	          2.19879889	          0.90200663	         -0.23581673	          2.20605111	          0.89149934	         -0.18141407	          2.19347787	          0.89285380	         -0.28723109	          2.20832491	          0.48344302	         -0.18919499	          2.32738280	          0.49311328	         -0.32585368	          2.12392592	          0.07022151	         -0.18819447	          2.17449355	          0.10690225	         -0.29938743	          2.27642798	          0.99034226	         -0.24217513	          2.28861070	          0.98902982	         -0.13964453	          2.26424527	          0.99165475	         -0.34470573	          2.08071995	          1.01380062	         -0.18654634	          2.07027578	          1.01331878	         -0.27116168	          2.22162509	          0.48241147	         -0.13120969	          2.32000732	          0.49633867	         -0.38480660	          2.19043541	          0.49934229	         -0.24190268	          2.33444691	          0.48860916	         -0.27573666	          2.12670851	          0.06974495	         -0.15029949	          2.16181278	          0.10936424	         -0.33671546	          2.12078714	          0.07802845	         -0.22008553	          2.18668294	          0.11846430	         -0.27216622	          2.12595677	          1.46815729	         -0.20704584	          2.23873806	          1.39400518	         -0.14267337	          2.21445918	          1.40753400	         -0.29626897	          2.21377182	          1.40184140	         -0.22137558	          2.25663662	          1.20381987	         -0.25244778	          2.26022768	          0.58901507	         -0.04880264	          2.43252873	          0.65784651	         -0.35571569	          2.27113104	          0.65071332	         -0.11917441	          2.33851552	          0.69027734	         -0.38076705	          2.26564384	          0.56957251	         -0.14404279	          2.35625529	          0.60429198	         -0.37733623	          2.16652489	          0.13962713	         -0.08627395	          2.30443716	          0.17795663	         -0.32669339	          2.14932585	          0.20199952	         -0.14122584	          2.26202726	          0.24869670	         -0.32418010	          2.24467564	          0.04224622	         -0.21608303	          2.28325152	          0.06196935	         -0.32410821	
          0.95833331	          2.28466845	          0.98993492	         -0.24195984	          5.46708441	          0.06880017	          6.57755709	         -5.74453497	          0.25173029	          6.22504473	        -11.59925079	         10.53871441	          0.00000000	          0.00000000	         14.08482742	         -2.18757987	          0.50149667	        -39.55007553	         10.92611790	          0.00000000	          0.00000000	        -20.86835289	          3.30977726	          3.47652841	         -0.70254816	        522.06093046	        -15.06308095	          2.19123413	          0.00000000	         -0.19601935	          0.00000000	          0.00000000	          0.00000000	          1.68411780	          0.00000000	         -0.25519537	          0.00000000	          1.39229431	          0.00000000	          0.00000000	          0.00000000	          0.00000000	          2.20709276	          0.90147281	         -0.23569503	          2.21412253	          0.89092577	         -0.18166678	          2.20200896	          0.89244097	         -0.28753519	          2.21165228	          0.48286891	         -0.18902922	          2.34064031	          0.49388152	         -0.32538113	          2.12408400	          0.07025462	         -0.18826972	          2.20102167	          0.10255191	         -0.29980978	          2.28466845	          0.98993492	         -0.24195984	          2.29640651	          0.98846668	         -0.13937412	          2.27293038	          0.99140310	         -0.34454554	          2.08870435	          1.01321352	         -0.18705222	          2.07864833	          1.01266003	         -0.27170932	          2.22478414	          0.48174253	         -0.13100736	          2.33361650	          0.49704081	         -0.38438058	          2.19391465	          0.49886629	         -0.24173447	          2.34712720	          0.48943061	         -0.27524951	          2.12690330	          0.06972602	         -0.15037812	          2.18839741	          0.10461395	         -0.33718127	          2.12077093	          0.07797129	         -0.22018608	          2.21259022	          0.11453904	         -0.27256396	          2.13476443	          1.46768343	         -0.20766683	          2.24750018	          1.39335907	         -0.14328468	          2.22305727	          1.40669966	         -0.29686025	          2.22245193	          1.40112650	         -0.22196224	          2.26483941	          1.20296204	         -0.25277758	          2.26440477	          0.58834636	         -0.04861361	          2.44385695	          0.65988338	         -0.35443693	          2.27579021	          0.64975518	         -0.11912943	          2.34972286	          0.69124866	         -0.38003138	          2.26966190	          0.56855506	         -0.14394705	          2.36834836	          0.60545909	         -0.37658304	          2.16730762	          0.13922864	         -0.08637454	          2.32839012	          0.17824054	         -0.32654709	          2.15054679	          0.20171921	         -0.14126380	          2.28349876	          0.24737729	         -0.32421768	          2.24476075	          0.04220331	         -0.21615219	          2.31153822	          0.06204003	         -0.32389325	
